<svg xmlns="http://www.w3.org/2000/svg" xmlns:xlink="http://www.w3.org/1999/xlink" width="16" zoomAndPan="magnify" viewBox="0 0 1024 1024" height="16" preserveAspectRatio="xMidYMid meet" version="1.0"><defs><clipPath id="3238c89514"><path d="M 0 0 L 767 0 L 767 767 L 0 767 Z M 0 0 " clip-rule="nonzero"/></clipPath><clipPath id="620c0b4b0e"><path d="M 75 0 L 693 0 C 712.890625 0 731.96875 7.902344 746.03125 21.96875 C 760.097656 36.03125 768 55.109375 768 75 L 768 693 C 768 712.890625 760.097656 731.96875 746.03125 746.03125 C 731.96875 760.097656 712.890625 768 693 768 L 75 768 C 55.109375 768 36.03125 760.097656 21.96875 746.03125 C 7.902344 731.96875 0 712.890625 0 693 L 0 75 C 0 55.109375 7.902344 36.03125 21.96875 21.96875 C 36.03125 7.902344 55.109375 0 75 0 " clip-rule="nonzero"/></clipPath><clipPath id="e3359b8188"><path d="M 75 0 L 693 0 C 712.890625 0 731.96875 7.902344 746.03125 21.96875 C 760.097656 36.03125 768 55.109375 768 75 L 768 693 C 768 712.890625 760.097656 731.96875 746.03125 746.03125 C 731.96875 760.097656 712.890625 768 693 768 L 75 768 C 55.109375 768 36.03125 760.097656 21.96875 746.03125 C 7.902344 731.96875 0 712.890625 0 693 L 0 75 C 0 55.109375 7.902344 36.03125 21.96875 21.96875 C 36.03125 7.902344 55.109375 0 75 0 " clip-rule="nonzero"/></clipPath><clipPath id="7469e77fd4"><path d="M 150.65625 144.820312 L 617 144.820312 L 617 623.320312 L 150.65625 623.320312 Z M 150.65625 144.820312 " clip-rule="nonzero"/></clipPath></defs><g clip-path="url(#3238c89514)"><g clip-path="url(#620c0b4b0e)"><path fill="#000000" d="M 0 0 L 766.800781 0 L 766.800781 766.800781 L 0 766.800781 Z M 0 0 " fill-opacity="1" fill-rule="nonzero"/></g></g><g clip-path="url(#e3359b8188)"><path stroke-linecap="butt" transform="matrix(0.75, 0, 0, 0.75, 0.000003, 0.00002)" fill="none" stroke-linejoin="miter" d="M 99.999995 -0.0000266667 L 923.999983 -0.0000266667 C 950.520816 -0.0000266667 975.958315 10.536432 994.708315 29.29164 C 1013.463523 48.041639 1023.999981 73.479139 1023.999981 99.999972 L 1023.999981 923.99996 C 1023.999981 950.520793 1013.463523 975.958292 994.708315 994.708292 C 975.958315 1013.4635 950.520816 1023.999958 923.999983 1023.999958 L 99.999995 1023.999958 C 73.479162 1023.999958 48.041662 1013.4635 29.291662 994.708292 C 10.536454 975.958292 -0.000004 950.520793 -0.000004 923.99996 L -0.000004 99.999972 C -0.000004 73.479139 10.536454 48.041639 29.291662 29.29164 C 48.041662 10.536432 73.479162 -0.0000266667 99.999995 -0.0000266667 " stroke="#ffffff" stroke-width="40" stroke-opacity="1" stroke-miterlimit="4"/></g><g clip-path="url(#7469e77fd4)"><path fill="#ffffff" d="M 306.859375 146.261719 C 343.433594 146.261719 373.125 191.78125 373.125 247.894531 C 373.125 304.007812 343.433594 349.53125 306.859375 349.53125 C 270.28125 349.53125 240.589844 304.046875 240.589844 247.894531 C 240.628906 191.78125 270.28125 146.261719 306.859375 146.261719 Z M 391.101562 392.289062 C 468.695312 392.441406 478.34375 443.882812 543.757812 531.925781 C 576.363281 595.984375 534.027344 636.367188 461.457031 619.078125 C 428.535156 602.292969 405.382812 596.375 382.152344 597.152344 C 341.917969 598.554688 331.761719 625.113281 284.949219 623.242188 C 248.839844 622.269531 232.574219 607.121094 229.421875 584.03125 C 226.035156 559.496094 235.492188 544 247.011719 523.710938 C 291.761719 444.738281 338.027344 382.394531 391.101562 392.289062 Z M 178.875 297 C 151.519531 307.824219 142.804688 350.621094 159.378906 392.558594 C 175.957031 434.5 211.5625 459.730469 238.917969 448.90625 C 266.273438 438.082031 274.988281 395.285156 258.410156 353.347656 C 241.835938 311.40625 206.230469 286.175781 178.875 297 Z M 588.933594 297 C 616.289062 307.824219 625.003906 350.621094 608.429688 392.558594 C 591.851562 434.5 556.207031 459.730469 528.890625 448.90625 C 501.535156 438.082031 492.820312 395.285156 509.398438 353.347656 C 525.972656 311.40625 561.578125 286.175781 588.933594 297 Z M 459.746094 144.820312 C 496.320312 144.820312 526.011719 190.34375 526.011719 246.457031 C 526.011719 302.570312 496.320312 348.089844 459.746094 348.089844 C 423.167969 348.089844 393.476562 302.605469 393.476562 246.457031 C 393.515625 190.34375 423.167969 144.820312 459.746094 144.820312 Z M 459.746094 144.820312 " fill-opacity="1" fill-rule="evenodd"/></g></svg>